<mxfile host="app.diagrams.net" agent="Mozilla/5.0 (Windows NT 10.0; Win64; x64) AppleWebKit/537.36 (KHTML, like Gecko) Chrome/131.0.0.0 Safari/537.36" version="24.8.6">
  <diagram id="C5RBs43oDa-KdzZeNtuy" name="Page-1">
    <mxGraphModel dx="1434" dy="772" grid="1" gridSize="10" guides="1" tooltips="1" connect="1" arrows="1" fold="1" page="1" pageScale="1" pageWidth="827" pageHeight="1169" math="0" shadow="0">
      <root>
        <mxCell id="WIyWlLk6GJQsqaUBKTNV-0" />
        <mxCell id="WIyWlLk6GJQsqaUBKTNV-1" parent="WIyWlLk6GJQsqaUBKTNV-0" />
        <mxCell id="WIyWlLk6GJQsqaUBKTNV-2" value="" style="rounded=0;html=1;jettySize=auto;orthogonalLoop=1;fontSize=11;endArrow=block;endFill=0;endSize=8;strokeWidth=1;shadow=0;labelBackgroundColor=none;edgeStyle=orthogonalEdgeStyle;" parent="WIyWlLk6GJQsqaUBKTNV-1" edge="1">
          <mxGeometry relative="1" as="geometry">
            <mxPoint x="354" y="120" as="sourcePoint" />
            <mxPoint x="354" y="170" as="targetPoint" />
          </mxGeometry>
        </mxCell>
        <mxCell id="coWbZ_NVhzIhV_GhFUpz-4" style="edgeStyle=orthogonalEdgeStyle;rounded=0;orthogonalLoop=1;jettySize=auto;html=1;exitX=0;exitY=0.5;exitDx=0;exitDy=0;entryX=1;entryY=0.5;entryDx=0;entryDy=0;" edge="1" parent="WIyWlLk6GJQsqaUBKTNV-1" source="WIyWlLk6GJQsqaUBKTNV-10" target="coWbZ_NVhzIhV_GhFUpz-3">
          <mxGeometry relative="1" as="geometry" />
        </mxCell>
        <mxCell id="coWbZ_NVhzIhV_GhFUpz-21" style="edgeStyle=orthogonalEdgeStyle;rounded=0;orthogonalLoop=1;jettySize=auto;html=1;exitX=1;exitY=0.5;exitDx=0;exitDy=0;" edge="1" parent="WIyWlLk6GJQsqaUBKTNV-1" source="WIyWlLk6GJQsqaUBKTNV-10" target="coWbZ_NVhzIhV_GhFUpz-20">
          <mxGeometry relative="1" as="geometry">
            <Array as="points">
              <mxPoint x="530" y="330" />
              <mxPoint x="530" y="330" />
            </Array>
          </mxGeometry>
        </mxCell>
        <mxCell id="WIyWlLk6GJQsqaUBKTNV-10" value="a=0" style="rhombus;whiteSpace=wrap;html=1;shadow=0;fontFamily=Helvetica;fontSize=12;align=center;strokeWidth=1;spacing=6;spacingTop=-4;" parent="WIyWlLk6GJQsqaUBKTNV-1" vertex="1">
          <mxGeometry x="304" y="290" width="100" height="80" as="geometry" />
        </mxCell>
        <mxCell id="coWbZ_NVhzIhV_GhFUpz-0" value="Start" style="ellipse;whiteSpace=wrap;html=1;" vertex="1" parent="WIyWlLk6GJQsqaUBKTNV-1">
          <mxGeometry x="294" y="40" width="120" height="80" as="geometry" />
        </mxCell>
        <mxCell id="coWbZ_NVhzIhV_GhFUpz-2" style="edgeStyle=orthogonalEdgeStyle;rounded=0;orthogonalLoop=1;jettySize=auto;html=1;" edge="1" parent="WIyWlLk6GJQsqaUBKTNV-1" source="coWbZ_NVhzIhV_GhFUpz-1" target="WIyWlLk6GJQsqaUBKTNV-10">
          <mxGeometry relative="1" as="geometry" />
        </mxCell>
        <mxCell id="coWbZ_NVhzIhV_GhFUpz-1" value="Nhập a,b,c" style="shape=parallelogram;perimeter=parallelogramPerimeter;whiteSpace=wrap;html=1;fixedSize=1;" vertex="1" parent="WIyWlLk6GJQsqaUBKTNV-1">
          <mxGeometry x="294" y="170" width="120" height="60" as="geometry" />
        </mxCell>
        <mxCell id="coWbZ_NVhzIhV_GhFUpz-7" style="edgeStyle=orthogonalEdgeStyle;rounded=0;orthogonalLoop=1;jettySize=auto;html=1;entryX=1;entryY=0.5;entryDx=0;entryDy=0;" edge="1" parent="WIyWlLk6GJQsqaUBKTNV-1" source="coWbZ_NVhzIhV_GhFUpz-3" target="coWbZ_NVhzIhV_GhFUpz-6">
          <mxGeometry relative="1" as="geometry" />
        </mxCell>
        <mxCell id="coWbZ_NVhzIhV_GhFUpz-13" style="edgeStyle=orthogonalEdgeStyle;rounded=0;orthogonalLoop=1;jettySize=auto;html=1;exitX=0.5;exitY=1;exitDx=0;exitDy=0;entryX=0.5;entryY=0;entryDx=0;entryDy=0;" edge="1" parent="WIyWlLk6GJQsqaUBKTNV-1" source="coWbZ_NVhzIhV_GhFUpz-3" target="coWbZ_NVhzIhV_GhFUpz-11">
          <mxGeometry relative="1" as="geometry" />
        </mxCell>
        <mxCell id="coWbZ_NVhzIhV_GhFUpz-3" value="B=0" style="rhombus;whiteSpace=wrap;html=1;" vertex="1" parent="WIyWlLk6GJQsqaUBKTNV-1">
          <mxGeometry x="170" y="290" width="80" height="80" as="geometry" />
        </mxCell>
        <mxCell id="coWbZ_NVhzIhV_GhFUpz-5" value="True" style="text;html=1;align=center;verticalAlign=middle;whiteSpace=wrap;rounded=0;" vertex="1" parent="WIyWlLk6GJQsqaUBKTNV-1">
          <mxGeometry x="250" y="300" width="60" height="30" as="geometry" />
        </mxCell>
        <mxCell id="coWbZ_NVhzIhV_GhFUpz-9" style="edgeStyle=orthogonalEdgeStyle;rounded=0;orthogonalLoop=1;jettySize=auto;html=1;exitX=0.5;exitY=1;exitDx=0;exitDy=0;" edge="1" parent="WIyWlLk6GJQsqaUBKTNV-1" source="coWbZ_NVhzIhV_GhFUpz-6" target="coWbZ_NVhzIhV_GhFUpz-8">
          <mxGeometry relative="1" as="geometry" />
        </mxCell>
        <mxCell id="coWbZ_NVhzIhV_GhFUpz-6" value="X=-c/b" style="rounded=0;whiteSpace=wrap;html=1;" vertex="1" parent="WIyWlLk6GJQsqaUBKTNV-1">
          <mxGeometry y="300" width="120" height="60" as="geometry" />
        </mxCell>
        <mxCell id="coWbZ_NVhzIhV_GhFUpz-42" style="edgeStyle=orthogonalEdgeStyle;rounded=0;orthogonalLoop=1;jettySize=auto;html=1;exitX=0.5;exitY=1;exitDx=0;exitDy=0;" edge="1" parent="WIyWlLk6GJQsqaUBKTNV-1" source="coWbZ_NVhzIhV_GhFUpz-8">
          <mxGeometry relative="1" as="geometry">
            <mxPoint x="270" y="680" as="targetPoint" />
            <Array as="points">
              <mxPoint x="60" y="680" />
            </Array>
          </mxGeometry>
        </mxCell>
        <mxCell id="coWbZ_NVhzIhV_GhFUpz-8" value="Hiện thị x" style="shape=parallelogram;perimeter=parallelogramPerimeter;whiteSpace=wrap;html=1;fixedSize=1;" vertex="1" parent="WIyWlLk6GJQsqaUBKTNV-1">
          <mxGeometry y="430" width="120" height="60" as="geometry" />
        </mxCell>
        <mxCell id="coWbZ_NVhzIhV_GhFUpz-10" value="False" style="text;html=1;align=center;verticalAlign=middle;whiteSpace=wrap;rounded=0;" vertex="1" parent="WIyWlLk6GJQsqaUBKTNV-1">
          <mxGeometry x="120" y="300" width="60" height="30" as="geometry" />
        </mxCell>
        <mxCell id="coWbZ_NVhzIhV_GhFUpz-14" style="edgeStyle=orthogonalEdgeStyle;rounded=0;orthogonalLoop=1;jettySize=auto;html=1;exitX=0.5;exitY=1;exitDx=0;exitDy=0;entryX=0.5;entryY=0;entryDx=0;entryDy=0;" edge="1" parent="WIyWlLk6GJQsqaUBKTNV-1" source="coWbZ_NVhzIhV_GhFUpz-11" target="coWbZ_NVhzIhV_GhFUpz-12">
          <mxGeometry relative="1" as="geometry" />
        </mxCell>
        <mxCell id="coWbZ_NVhzIhV_GhFUpz-18" style="edgeStyle=orthogonalEdgeStyle;rounded=0;orthogonalLoop=1;jettySize=auto;html=1;exitX=1;exitY=0.5;exitDx=0;exitDy=0;" edge="1" parent="WIyWlLk6GJQsqaUBKTNV-1" source="coWbZ_NVhzIhV_GhFUpz-11" target="coWbZ_NVhzIhV_GhFUpz-17">
          <mxGeometry relative="1" as="geometry" />
        </mxCell>
        <mxCell id="coWbZ_NVhzIhV_GhFUpz-11" value="C=0" style="rhombus;whiteSpace=wrap;html=1;" vertex="1" parent="WIyWlLk6GJQsqaUBKTNV-1">
          <mxGeometry x="170" y="400" width="80" height="80" as="geometry" />
        </mxCell>
        <mxCell id="coWbZ_NVhzIhV_GhFUpz-41" style="edgeStyle=orthogonalEdgeStyle;rounded=0;orthogonalLoop=1;jettySize=auto;html=1;exitX=0.5;exitY=1;exitDx=0;exitDy=0;entryX=0;entryY=0.5;entryDx=0;entryDy=0;" edge="1" parent="WIyWlLk6GJQsqaUBKTNV-1" source="coWbZ_NVhzIhV_GhFUpz-12" target="coWbZ_NVhzIhV_GhFUpz-36">
          <mxGeometry relative="1" as="geometry" />
        </mxCell>
        <mxCell id="coWbZ_NVhzIhV_GhFUpz-12" value="Phương trình vô&amp;nbsp;&lt;div&gt;nghiệm&lt;/div&gt;" style="shape=parallelogram;perimeter=parallelogramPerimeter;whiteSpace=wrap;html=1;fixedSize=1;" vertex="1" parent="WIyWlLk6GJQsqaUBKTNV-1">
          <mxGeometry x="150" y="525" width="120" height="60" as="geometry" />
        </mxCell>
        <mxCell id="coWbZ_NVhzIhV_GhFUpz-15" value="True" style="text;html=1;align=center;verticalAlign=middle;whiteSpace=wrap;rounded=0;" vertex="1" parent="WIyWlLk6GJQsqaUBKTNV-1">
          <mxGeometry x="210" y="370" width="60" height="30" as="geometry" />
        </mxCell>
        <mxCell id="coWbZ_NVhzIhV_GhFUpz-16" value="False" style="text;html=1;align=center;verticalAlign=middle;whiteSpace=wrap;rounded=0;" vertex="1" parent="WIyWlLk6GJQsqaUBKTNV-1">
          <mxGeometry x="210" y="480" width="60" height="30" as="geometry" />
        </mxCell>
        <mxCell id="coWbZ_NVhzIhV_GhFUpz-43" style="edgeStyle=orthogonalEdgeStyle;rounded=0;orthogonalLoop=1;jettySize=auto;html=1;exitX=0.5;exitY=1;exitDx=0;exitDy=0;" edge="1" parent="WIyWlLk6GJQsqaUBKTNV-1" source="coWbZ_NVhzIhV_GhFUpz-17" target="coWbZ_NVhzIhV_GhFUpz-36">
          <mxGeometry relative="1" as="geometry" />
        </mxCell>
        <mxCell id="coWbZ_NVhzIhV_GhFUpz-17" value="Phương trình vô&lt;div&gt;số nghiệm&lt;/div&gt;" style="shape=parallelogram;perimeter=parallelogramPerimeter;whiteSpace=wrap;html=1;fixedSize=1;" vertex="1" parent="WIyWlLk6GJQsqaUBKTNV-1">
          <mxGeometry x="284" y="410" width="120" height="60" as="geometry" />
        </mxCell>
        <mxCell id="coWbZ_NVhzIhV_GhFUpz-19" value="True" style="text;html=1;align=center;verticalAlign=middle;whiteSpace=wrap;rounded=0;" vertex="1" parent="WIyWlLk6GJQsqaUBKTNV-1">
          <mxGeometry x="244" y="410" width="60" height="30" as="geometry" />
        </mxCell>
        <mxCell id="coWbZ_NVhzIhV_GhFUpz-24" style="edgeStyle=orthogonalEdgeStyle;rounded=0;orthogonalLoop=1;jettySize=auto;html=1;exitX=0.5;exitY=1;exitDx=0;exitDy=0;" edge="1" parent="WIyWlLk6GJQsqaUBKTNV-1" source="coWbZ_NVhzIhV_GhFUpz-20" target="coWbZ_NVhzIhV_GhFUpz-23">
          <mxGeometry relative="1" as="geometry" />
        </mxCell>
        <mxCell id="coWbZ_NVhzIhV_GhFUpz-20" value="Delta=B*B-4AC" style="rounded=0;whiteSpace=wrap;html=1;" vertex="1" parent="WIyWlLk6GJQsqaUBKTNV-1">
          <mxGeometry x="440" y="290" width="120" height="60" as="geometry" />
        </mxCell>
        <mxCell id="coWbZ_NVhzIhV_GhFUpz-22" value="False" style="text;html=1;align=center;verticalAlign=middle;whiteSpace=wrap;rounded=0;" vertex="1" parent="WIyWlLk6GJQsqaUBKTNV-1">
          <mxGeometry x="404" y="300" width="60" height="30" as="geometry" />
        </mxCell>
        <mxCell id="coWbZ_NVhzIhV_GhFUpz-26" style="edgeStyle=orthogonalEdgeStyle;rounded=0;orthogonalLoop=1;jettySize=auto;html=1;exitX=0.5;exitY=1;exitDx=0;exitDy=0;entryX=0.5;entryY=0;entryDx=0;entryDy=0;" edge="1" parent="WIyWlLk6GJQsqaUBKTNV-1" source="coWbZ_NVhzIhV_GhFUpz-23">
          <mxGeometry relative="1" as="geometry">
            <mxPoint x="500" y="530" as="targetPoint" />
          </mxGeometry>
        </mxCell>
        <mxCell id="coWbZ_NVhzIhV_GhFUpz-23" value="Delta&amp;lt;0" style="rhombus;whiteSpace=wrap;html=1;" vertex="1" parent="WIyWlLk6GJQsqaUBKTNV-1">
          <mxGeometry x="460" y="400" width="80" height="80" as="geometry" />
        </mxCell>
        <mxCell id="coWbZ_NVhzIhV_GhFUpz-27" value="True" style="text;html=1;align=center;verticalAlign=middle;whiteSpace=wrap;rounded=0;" vertex="1" parent="WIyWlLk6GJQsqaUBKTNV-1">
          <mxGeometry x="440" y="485" width="60" height="30" as="geometry" />
        </mxCell>
        <mxCell id="coWbZ_NVhzIhV_GhFUpz-44" style="edgeStyle=orthogonalEdgeStyle;rounded=0;orthogonalLoop=1;jettySize=auto;html=1;entryX=1;entryY=0.5;entryDx=0;entryDy=0;" edge="1" parent="WIyWlLk6GJQsqaUBKTNV-1" source="coWbZ_NVhzIhV_GhFUpz-28" target="coWbZ_NVhzIhV_GhFUpz-36">
          <mxGeometry relative="1" as="geometry">
            <Array as="points">
              <mxPoint x="500" y="680" />
            </Array>
          </mxGeometry>
        </mxCell>
        <mxCell id="coWbZ_NVhzIhV_GhFUpz-28" value="Phương trình vô&amp;nbsp;&lt;div&gt;nghiệm&lt;/div&gt;" style="shape=parallelogram;perimeter=parallelogramPerimeter;whiteSpace=wrap;html=1;fixedSize=1;" vertex="1" parent="WIyWlLk6GJQsqaUBKTNV-1">
          <mxGeometry x="440" y="530" width="120" height="60" as="geometry" />
        </mxCell>
        <mxCell id="coWbZ_NVhzIhV_GhFUpz-32" style="edgeStyle=orthogonalEdgeStyle;rounded=0;orthogonalLoop=1;jettySize=auto;html=1;exitX=1;exitY=0.5;exitDx=0;exitDy=0;entryX=0;entryY=0.5;entryDx=0;entryDy=0;" edge="1" parent="WIyWlLk6GJQsqaUBKTNV-1" source="coWbZ_NVhzIhV_GhFUpz-29">
          <mxGeometry relative="1" as="geometry">
            <mxPoint x="687" y="440" as="targetPoint" />
          </mxGeometry>
        </mxCell>
        <mxCell id="coWbZ_NVhzIhV_GhFUpz-34" style="edgeStyle=orthogonalEdgeStyle;rounded=0;orthogonalLoop=1;jettySize=auto;html=1;exitX=0.5;exitY=1;exitDx=0;exitDy=0;entryX=0.5;entryY=0;entryDx=0;entryDy=0;" edge="1" parent="WIyWlLk6GJQsqaUBKTNV-1" source="coWbZ_NVhzIhV_GhFUpz-29" target="coWbZ_NVhzIhV_GhFUpz-33">
          <mxGeometry relative="1" as="geometry" />
        </mxCell>
        <mxCell id="coWbZ_NVhzIhV_GhFUpz-29" value="Delta=0" style="rhombus;whiteSpace=wrap;html=1;" vertex="1" parent="WIyWlLk6GJQsqaUBKTNV-1">
          <mxGeometry x="560" y="400" width="80" height="80" as="geometry" />
        </mxCell>
        <mxCell id="coWbZ_NVhzIhV_GhFUpz-30" style="edgeStyle=orthogonalEdgeStyle;rounded=0;orthogonalLoop=1;jettySize=auto;html=1;exitX=1;exitY=0.5;exitDx=0;exitDy=0;entryX=0.088;entryY=0.488;entryDx=0;entryDy=0;entryPerimeter=0;" edge="1" parent="WIyWlLk6GJQsqaUBKTNV-1" source="coWbZ_NVhzIhV_GhFUpz-23" target="coWbZ_NVhzIhV_GhFUpz-29">
          <mxGeometry relative="1" as="geometry" />
        </mxCell>
        <mxCell id="coWbZ_NVhzIhV_GhFUpz-40" style="edgeStyle=orthogonalEdgeStyle;rounded=0;orthogonalLoop=1;jettySize=auto;html=1;entryX=0.5;entryY=0;entryDx=0;entryDy=0;" edge="1" parent="WIyWlLk6GJQsqaUBKTNV-1" source="coWbZ_NVhzIhV_GhFUpz-31" target="coWbZ_NVhzIhV_GhFUpz-39">
          <mxGeometry relative="1" as="geometry" />
        </mxCell>
        <mxCell id="coWbZ_NVhzIhV_GhFUpz-31" value="X1=(-B+Căn bậc 2(dt)/2A&lt;div&gt;X2=(-B-Căn bậc 2(dt)/2A&lt;/div&gt;" style="rounded=0;whiteSpace=wrap;html=1;" vertex="1" parent="WIyWlLk6GJQsqaUBKTNV-1">
          <mxGeometry x="687" y="410" width="143" height="60" as="geometry" />
        </mxCell>
        <mxCell id="coWbZ_NVhzIhV_GhFUpz-45" style="edgeStyle=orthogonalEdgeStyle;rounded=0;orthogonalLoop=1;jettySize=auto;html=1;exitX=0.5;exitY=1;exitDx=0;exitDy=0;" edge="1" parent="WIyWlLk6GJQsqaUBKTNV-1" source="coWbZ_NVhzIhV_GhFUpz-33">
          <mxGeometry relative="1" as="geometry">
            <mxPoint x="390" y="690" as="targetPoint" />
            <Array as="points">
              <mxPoint x="630" y="680" />
              <mxPoint x="391" y="680" />
            </Array>
          </mxGeometry>
        </mxCell>
        <mxCell id="coWbZ_NVhzIhV_GhFUpz-33" value="X=-B/2A" style="rounded=0;whiteSpace=wrap;html=1;" vertex="1" parent="WIyWlLk6GJQsqaUBKTNV-1">
          <mxGeometry x="570" y="530" width="120" height="60" as="geometry" />
        </mxCell>
        <mxCell id="coWbZ_NVhzIhV_GhFUpz-35" value="True" style="text;html=1;align=center;verticalAlign=middle;whiteSpace=wrap;rounded=0;" vertex="1" parent="WIyWlLk6GJQsqaUBKTNV-1">
          <mxGeometry x="590" y="480" width="60" height="30" as="geometry" />
        </mxCell>
        <mxCell id="coWbZ_NVhzIhV_GhFUpz-47" style="edgeStyle=orthogonalEdgeStyle;rounded=0;orthogonalLoop=1;jettySize=auto;html=1;exitX=1;exitY=0.5;exitDx=0;exitDy=0;" edge="1" parent="WIyWlLk6GJQsqaUBKTNV-1" source="coWbZ_NVhzIhV_GhFUpz-36">
          <mxGeometry relative="1" as="geometry">
            <mxPoint x="400" y="680" as="targetPoint" />
          </mxGeometry>
        </mxCell>
        <mxCell id="coWbZ_NVhzIhV_GhFUpz-36" value="Stop" style="ellipse;whiteSpace=wrap;html=1;" vertex="1" parent="WIyWlLk6GJQsqaUBKTNV-1">
          <mxGeometry x="270" y="640" width="120" height="80" as="geometry" />
        </mxCell>
        <mxCell id="coWbZ_NVhzIhV_GhFUpz-46" style="edgeStyle=orthogonalEdgeStyle;rounded=0;orthogonalLoop=1;jettySize=auto;html=1;exitX=0.5;exitY=1;exitDx=0;exitDy=0;" edge="1" parent="WIyWlLk6GJQsqaUBKTNV-1" source="coWbZ_NVhzIhV_GhFUpz-39">
          <mxGeometry relative="1" as="geometry">
            <mxPoint x="390" y="690" as="targetPoint" />
            <Array as="points">
              <mxPoint x="767" y="680" />
              <mxPoint x="391" y="680" />
            </Array>
          </mxGeometry>
        </mxCell>
        <mxCell id="coWbZ_NVhzIhV_GhFUpz-39" value="Hiển thị X1,X2" style="shape=parallelogram;perimeter=parallelogramPerimeter;whiteSpace=wrap;html=1;fixedSize=1;" vertex="1" parent="WIyWlLk6GJQsqaUBKTNV-1">
          <mxGeometry x="707" y="530" width="120" height="60" as="geometry" />
        </mxCell>
      </root>
    </mxGraphModel>
  </diagram>
</mxfile>
